<svg width="1512" height="1957" viewBox="0 0 1512 1957" fill="none" xmlns="http://www.w3.org/2000/svg">
<circle cx="519.423" cy="330.422" r="70.326" transform="rotate(3.44222 519.423 330.422)" fill="#707BFD"/>
<circle cx="666.637" cy="339.277" r="70.326" transform="rotate(3.44222 666.637 339.277)" fill="#D03FEE"/>
<path d="M1209.74 713.87C1170 658.931 1169.16 640.595 1117.03 594.618C1017.47 506.792 939.297 434.481 808.003 383.859C679.097 334.158 588.51 333.122 441.094 341.016C184.551 354.752 17.6409 429.838 -189.627 564.041C-396.894 698.243 -267.809 1229.87 -213.347 1332.43C-158.885 1435 92.3292 1362.93 149.11 1437.63C220.509 1531.55 218.091 1587.82 339.208 1630.81C399.657 1652.27 438.676 1658.27 506.49 1657.95C691.429 1657.08 827.351 1519.12 941.766 1448.2C1056.18 1377.29 1121.83 1348 1193.97 1252.43C1271.54 1149.67 1297.63 1073.84 1295.89 957.51C1294.37 855.024 1269.62 796.632 1209.74 713.87Z" stroke="#FE6B16" stroke-width="5"/>
<path d="M666.973 339.122C664.636 377.988 631.457 407.614 592.867 405.292C554.277 402.971 524.888 369.582 527.226 330.717C529.564 291.851 562.743 262.225 601.333 264.547C639.923 266.868 669.311 300.257 666.973 339.122Z" fill="#FE6B16"/>
</svg>
