<?xml version="1.0" encoding="UTF-8"?><svg id="Layer_1" xmlns="http://www.w3.org/2000/svg" viewBox="0 0 235.15 507.5"><path d="M29.79,176.58c.8-.53,1.54-1.17,2.4-1.59,40.83-20.21,70.33-51.9,90.62-92.02,12.6-24.91,23.08-50.88,34.49-76.4,2.37-5.29,3.34-8.56,5.95-5.25,4.97,6.29,4.62,5.19,4.63,7.32,.17,30,.11,60.01,.11,90.01,0,9,.26,18.01-.1,27-.19,4.8,1.63,5.87,6.06,5.83,18.5-.2,37,.03,55.49-.16,4.36-.05,5.81,1.28,5.71,5.7-.25,12-.17,24,0,36,.06,4.12-1.49,5.59-5.58,5.56-16.66-.15-33.33,.07-49.99-.19-4.62-.07-5.99,1.36-5.98,5.92,.17,78.84,0,157.68,.37,236.51,.11,24.29-9.14,43.19-29.73,55.79-33.96,20.77-70.78,32.35-110.91,30.75-11.15-.44-22.21-3.38-33.31-5.18v-1.72c2.61-.62,5.24-1.2,7.84-1.87,11.75-3.05,23.65-5.63,35.2-9.32,17.07-5.45,27.24-17.33,28.1-35.49,.96-20.3,1.21-40.64,1.23-60.96,.07-69.34-.09-138.67-.17-208.01,0-6.78-.03-6.8-6.94-6.73-8.83,.08-17.66,.26-26.49,.27-2.95,0-5.91-.38-8.86-.59-.04-.39-.08-.78-.12-1.17Z"/></svg>